<?xml version="1.0" encoding="UTF-8" standalone="no"?>
<!DOCTYPE svg PUBLIC "-//W3C//DTD SVG 1.1//EN" "http://www.w3.org/Graphics/SVG/1.1/DTD/svg11.dtd">
<svg width="100%" height="100%" viewBox="0 0 350 420" version="1.1" xmlns="http://www.w3.org/2000/svg" xmlns:xlink="http://www.w3.org/1999/xlink" xml:space="preserve" xmlns:serif="http://www.serif.com/" style="fill-rule:evenodd;clip-rule:evenodd;stroke-linejoin:round;stroke-miterlimit:2;">
    <g id="Background">
        <path id="Path-0" serif:id="Path 0" d="M130,30L130,40L220,40L220,30L130,30ZM130,380L130,390L220,390L220,380L130,380Z" style="fill:rgb(112,113,158);fill-rule:nonzero;"/>
        <path id="Path-1" serif:id="Path 1" d="M0,30L10,30L10,390L20,390L20,400L90,400L90,410L120,410L120,380L130,380L130,400L220,400L220,380L230,380L230,410L260,410L260,400L330,400L330,390L340,390L340,400L330,400L330,410L260,410L260,420L220,420L220,410L130,410L130,420L90,420L90,410L20,410L20,400L10,400L10,390L0,390L0,30ZM120,30L130,30L130,50L220,50L220,30L230,30L230,60L260,60L260,50L310,50L310,370L300,370L300,60L260,60L260,70L220,70L220,60L130,60L130,70L90,70L90,60L40,60L40,50L90,50L90,60L120,60L120,30Z" style="fill:rgb(13,14,32);"/>
        <path id="Path-2" serif:id="Path 2" d="M130,40L130,50L220,50L220,40L130,40ZM130,390L130,400L220,400L220,390L130,390Z" style="fill:rgb(255,191,71);fill-rule:nonzero;"/>
        <path id="Path-3" serif:id="Path 3" d="M130,20L130,30L220,30L220,20L130,20ZM130,370L130,380L220,380L220,370L130,370Z" style="fill:rgb(248,245,206);fill-rule:nonzero;"/>
        <path id="Path-4" serif:id="Path 4" d="M50,60L50,360L90,360L90,350L130,350L130,360L220,360L220,350L260,350L260,360L300,360L300,60L260,60L260,70L220,70L220,60L130,60L130,70L90,70L90,60L50,60Z" style="fill:rgb(104,65,94);fill-rule:nonzero;"/>
        <path id="Path-5" serif:id="Path 5" d="M90,10L120,10L120,20L90,20L90,30L20,30L20,40L10,40L10,30L20,30L20,20L90,20L90,10ZM230,10L260,10L260,20L330,20L330,30L340,30L340,390L330,390L330,30L260,30L260,20L230,20L230,10ZM30,60L40,60L40,370L90,370L90,360L120,360L120,370L90,370L90,380L40,380L40,370L30,370L30,60ZM230,360L260,360L260,370L300,370L300,380L260,380L260,370L230,370L230,360Z" style="fill:rgb(157,111,88);"/>
        <path id="Path-6" serif:id="Path 6" d="M90,0L130,0L130,10L220,10L220,0L260,0L260,10L330,10L330,20L340,20L340,30L350,30L350,390L340,390L340,30L330,30L330,20L260,20L260,10L230,10L230,30L220,30L220,20L130,20L130,30L120,30L120,10L90,10L90,20L20,20L20,30L10,30L10,20L20,20L20,10L90,10L90,0ZM40,60L50,60L50,360L90,360L90,350L130,350L130,360L220,360L220,350L260,350L260,360L300,360L300,370L260,370L260,360L230,360L230,380L220,380L220,370L130,370L130,380L120,380L120,360L90,360L90,370L40,370L40,60Z" style="fill:rgb(51,38,62);"/>
        <path id="Path-7" serif:id="Path 7" d="M90,20L90,30L20,30L20,40L10,40L10,390L20,390L20,400L90,400L90,410L120,410L120,370L90,370L90,380L40,380L40,370L30,370L30,60L40,60L40,50L90,50L90,60L120,60L120,20L90,20ZM230,20L230,60L260,60L260,50L310,50L310,370L300,370L300,380L260,380L260,370L230,370L230,410L260,410L260,400L330,400L330,30L260,30L260,20L230,20Z" style="fill:rgb(110,77,58);fill-rule:nonzero;"/>
        <rect id="Path-8" serif:id="Path 8" x="70" y="80" width="210" height="260" style="fill:rgb(112,113,158);fill-rule:nonzero;"/>
    </g>
</svg>
